HIERARCHY
ROOT SpineBase
{
  OFFSET 0.000000 0.000000 0.000000
  CHANNELS 6 Xposition Yposition Zposition Zrotation Xrotation Yrotation
  JOINT SpineMid
  {
    OFFSET 0.000000 30.911727 0.000000
    CHANNELS 3 Zrotation Xrotation Yrotation
    JOINT SpineShoulder
    {
      OFFSET 0.136933 23.046168 -0.774077
      CHANNELS 3 Zrotation Xrotation Yrotation
      JOINT Neck
      {
        OFFSET 0.140722 7.664855 -0.543013
        CHANNELS 3 Zrotation Xrotation Yrotation
        JOINT Head
        {
          OFFSET 3.367371 9.040043 5.261936
          CHANNELS 3 Zrotation Xrotation Yrotation
          End Site
          {
            OFFSET 0 0 0
          }
        }
      }
      JOINT ShoulderLeft
      {
        OFFSET -1.576561 -3.561634 -9.743237
        CHANNELS 3 Zrotation Xrotation Yrotation
        JOINT ElbowLeft
        {
          OFFSET 10.128966 -20.108015 -9.053153
          CHANNELS 3 Zrotation Xrotation Yrotation
          JOINT WristLeft
          {
            OFFSET 6.542810 -22.988698 5.920905
            CHANNELS 3 Zrotation Xrotation Yrotation
            JOINT HandLeft
            {
              OFFSET 2.066460 -9.011517 4.566293
              CHANNELS 3 Zrotation Xrotation Yrotation
              JOINT HandTipLeft
              {
                OFFSET 1.722041 -6.094983 1.118525
                CHANNELS 3 Zrotation Xrotation Yrotation
                End Site
                {
                  OFFSET 0 0 0
                }
              }
              JOINT ThumbLeft
              {
                OFFSET -0.503279 -4.572300 -2.068755
                CHANNELS 3 Zrotation Xrotation Yrotation
                End Site
                {
                  OFFSET 0 0 0
                }
              }
            }
          }
        }
      }
      JOINT ShoulderRight
      {
        OFFSET 9.664243 -7.160032 -14.476835
        CHANNELS 3 Zrotation Xrotation Yrotation
        JOINT ElbowRight
        {
          OFFSET -0.123006 -26.017135 -2.202054
          CHANNELS 3 Zrotation Xrotation Yrotation
          JOINT WristRight
          {
            OFFSET 1.502718 -20.636605 5.422808
            CHANNELS 3 Zrotation Xrotation Yrotation
            JOINT HandRight
            {
              OFFSET -0.005355 -0.246787 2.705413
              CHANNELS 3 Zrotation Xrotation Yrotation
              JOINT HandTipRight
              {
                OFFSET -0.562946 -8.135087 0.810298
                CHANNELS 3 Zrotation Xrotation Yrotation
                End Site
                {
                  OFFSET 0 0 0
                }
              }
              JOINT ThumbRight
              {
                OFFSET 5.578787 -0.141170 -2.492570
                CHANNELS 3 Zrotation Xrotation Yrotation
                End Site
                {
                  OFFSET 0 0 0
                }
              }
            }
          }
        }
      }
    }
  }
  JOINT HipLeft
  {
    OFFSET -5.244898 0.069501 -4.682025
    CHANNELS 3 Zrotation Xrotation Yrotation
    JOINT KneeLeft
    {
      OFFSET -10.127387 -32.938081 14.453416
      CHANNELS 3 Zrotation Xrotation Yrotation
      JOINT AnkleLeft
      {
        OFFSET -0.896269 -26.143593 5.022868
        CHANNELS 3 Zrotation Xrotation Yrotation
        JOINT FootLeft
        {
          OFFSET -3.348869 -3.324618 -12.326245
          CHANNELS 3 Zrotation Xrotation Yrotation
          End Site
          {
            OFFSET 0 0 0
          }
        }
      }
    }
  }
  JOINT HipRight
  {
    OFFSET 5.810781 2.660198 -2.178978
    CHANNELS 3 Zrotation Xrotation Yrotation
    JOINT KneeRight
    {
      OFFSET -2.113013 -29.955019 -4.702587
      CHANNELS 3 Zrotation Xrotation Yrotation
      JOINT AnkleRight
      {
        OFFSET -5.414631 -34.001353 2.625124
        CHANNELS 3 Zrotation Xrotation Yrotation
        JOINT FootRight
        {
          OFFSET -7.956412 -1.679755 8.933654
          CHANNELS 3 Zrotation Xrotation Yrotation
          End Site
          {
            OFFSET 0 0 0
          }
        }
      }
    }
  }
}
MOTION
Frames: 5
Frame Time: 0.033333
-17.041932 69.334360 297.591609 -2.370011 0.864029 -10.550650 0.033761 -0.602605 10.471955 0.523091 -0.444482 -0.055497 4.693522 -4.636159 0.440926 0.000000 0.000000 0.000000 -0.429151 -1.895528 0.111248 -6.135557 7.925289 0.167661 1.126287 1.668074 -1.382958 -0.663348 -3.448127 1.446028 0.000000 0.000000 0.000000 0.000000 0.000000 0.000000 1.778092 3.971586 0.128950 2.256158 2.044745 1.038094 -6.505035 48.516088 12.068337 -0.532120 -51.290848 -8.928481 0.000000 0.000000 0.000000 0.000000 0.000000 0.000000 5.465323 -0.641359 12.114962 -1.487064 4.604748 -1.438659 -0.752984 -8.949101 3.755621 0.000000 0.000000 0.000000 6.581348 -3.147183 10.393032 -3.539737 3.418399 0.417462 4.459061 5.745249 -6.794710 0.000000 0.000000 0.000000
-16.842464 69.360061 297.469460 -2.306773 0.903963 -10.701993 0.241273 -0.548071 10.635820 0.708856 -0.467695 -0.030073 7.227090 -5.592223 -0.881795 0.000000 0.000000 0.000000 -0.866826 -1.894406 0.085823 -5.419832 6.949073 -0.056172 -0.121962 1.457791 -1.916925 0.780515 -4.443732 1.565456 0.000000 0.000000 0.000000 0.000000 0.000000 0.000000 0.846244 4.023808 0.154608 3.475551 1.766670 1.219309 -7.584766 44.006172 14.679550 -6.752314 -45.488081 -16.653614 0.000000 0.000000 0.000000 0.000000 0.000000 0.000000 5.344231 -0.412876 12.171437 -0.883312 4.391638 -1.261878 -1.258856 -9.370692 3.612191 0.000000 0.000000 0.000000 5.966419 -3.564912 10.661244 -2.902837 3.699458 0.286562 4.015953 5.318153 -6.854012 0.000000 0.000000 0.000000
-16.988476 69.358273 297.406250 -1.791950 0.942001 -10.945136 0.292080 -0.514771 10.897853 0.740130 -0.491790 -0.004245 8.421702 -7.354855 -1.152226 0.000000 0.000000 0.000000 -1.011508 -1.820453 -0.099875 -5.245526 6.176084 -0.019567 -2.009638 1.491896 -2.757227 5.055467 -5.561352 2.616874 0.000000 0.000000 0.000000 0.000000 0.000000 0.000000 1.150791 3.898847 0.005753 2.739953 2.173661 1.322888 -7.204249 38.142445 15.445160 -0.398242 -35.498639 -13.909392 0.000000 0.000000 0.000000 0.000000 0.000000 0.000000 5.091167 0.026499 12.407142 -0.998293 3.980735 -1.226078 -1.668837 -9.173192 3.877956 0.000000 0.000000 0.000000 5.568513 -3.953073 10.936603 -2.932817 3.989458 0.279128 1.372656 1.929775 -2.183134 0.000000 0.000000 0.000000
-17.441275 69.372501 297.412539 -1.198738 0.871001 -11.446447 0.298774 -0.470530 11.417207 0.999508 -0.349910 0.038702 9.433124 -8.810308 -1.607979 0.000000 0.000000 0.000000 -1.314805 -1.790503 -0.334851 -5.110473 5.763738 0.207782 -2.852965 3.132414 -2.511951 8.105057 -7.108175 3.166185 0.000000 0.000000 0.000000 0.000000 0.000000 0.000000 2.205982 3.593205 -0.272233 0.409061 2.289961 1.294923 -6.134801 37.407860 13.493183 3.689312 -33.919459 -9.665777 0.000000 0.000000 0.000000 0.000000 0.000000 0.000000 4.914100 0.268065 13.053135 -1.837849 3.753882 -1.439495 -1.614905 -8.111133 4.103884 0.000000 0.000000 0.000000 5.506813 -4.015892 11.390063 -3.415186 4.145212 0.364566 -0.226522 0.478562 -3.514659 0.000000 0.000000 0.000000
-18.114487 69.330916 297.456277 -0.234000 0.932698 -11.129139 0.409671 -0.869977 11.134154 0.814419 -0.047816 0.058922 10.890825 -10.138640 -2.262762 0.000000 0.000000 0.000000 -1.593862 -1.641805 -0.576088 -5.035452 5.632972 0.518397 -5.350186 -0.589731 -4.935799 15.256471 1.511732 7.086707 0.000000 0.000000 0.000000 0.000000 0.000000 0.000000 3.202363 2.817821 -0.510897 -2.343342 2.963436 1.123729 -4.445100 41.773386 9.459482 3.221206 -41.909523 -5.403365 0.000000 0.000000 0.000000 0.000000 0.000000 0.000000 4.306509 0.052834 12.891407 -2.985894 3.332319 -1.699955 -1.267557 -6.061527 4.200488 0.000000 0.000000 0.000000 5.888812 -4.364105 10.961470 -3.690092 4.431060 0.611959 -0.855496 3.336247 -17.482457 0.000000 0.000000 0.000000
